<svg width="10" height="22" viewBox="0 0 10 22" fill="none" xmlns="http://www.w3.org/2000/svg">
<path d="M8.47517 0.601684C8.82021 0.269383 9.3693 0.279709 9.7016 0.624747C10.0339 0.969785 10.0236 1.51888 9.67853 1.85118L2.17331 9.07933C1.82828 9.41163 1.27918 9.4013 0.946884 9.05626C0.614584 8.71122 0.62491 8.16213 0.969948 7.82983L8.47517 0.601684Z" fill="white" fill-opacity="0.6"/>
<path d="M8.12407 21.3983C8.46911 21.7306 9.0182 21.7203 9.3505 21.3753C9.6828 21.0302 9.67247 20.4811 9.32744 20.1488L1.82811 12.9264C1.48307 12.5941 0.933984 12.6044 0.601683 12.9494C0.269383 13.2945 0.279709 13.8435 0.624747 14.1758L8.12407 21.3983Z" fill="white" fill-opacity="0.6"/>
</svg>
