<svg width="10" height="22" viewBox="0 0 10 22" fill="none" xmlns="http://www.w3.org/2000/svg">
<path d="M1.52483 0.601684C1.17979 0.269383 0.630702 0.279709 0.298402 0.624747C-0.0338993 0.969785 -0.0235729 1.51888 0.321465 1.85118L7.82669 9.07933C8.17172 9.41163 8.72082 9.4013 9.05312 9.05626C9.38542 8.71122 9.37509 8.16213 9.03005 7.82983L1.52483 0.601684Z" fill="white" fill-opacity="0.6"/>
<path d="M1.87593 21.3983C1.53089 21.7306 0.9818 21.7203 0.6495 21.3753C0.3172 21.0302 0.327526 20.4811 0.672564 20.1488L8.17189 12.9264C8.51693 12.5941 9.06602 12.6044 9.39832 12.9494C9.73062 13.2945 9.72029 13.8435 9.37525 14.1758L1.87593 21.3983Z" fill="white" fill-opacity="0.6"/>
</svg>
