<svg width="7" height="12" viewBox="0 0 7 12" fill="none" xmlns="http://www.w3.org/2000/svg">
<path d="M1.35355 0.646447C1.15829 0.451184 0.841709 0.451184 0.646447 0.646447C0.451184 0.841709 0.451184 1.15829 0.646447 1.35355L1.35355 0.646447ZM6 6L6.36997 6.33634L6.69067 5.98356L6.35355 5.64645L6 6ZM0.63003 11.1637C0.444277 11.368 0.459335 11.6842 0.663664 11.87C0.867992 12.0557 1.18422 12.0407 1.36997 11.8363L0.63003 11.1637ZM0.646447 1.35355L5.64645 6.35355L6.35355 5.64645L1.35355 0.646447L0.646447 1.35355ZM5.63003 5.66366L0.63003 11.1637L1.36997 11.8363L6.36997 6.33634L5.63003 5.66366Z" fill="white" fill-opacity="0.2"/>
</svg>
