<svg width="28" height="24" viewBox="0 0 28 24" fill="none" xmlns="http://www.w3.org/2000/svg">
<path d="M27.4783 3.64558C27.5587 3.3814 27.4098 3.10207 27.1456 3.02166C26.8814 2.94126 26.6021 3.09024 26.5217 3.35442L27.4783 3.64558ZM23.5 15V15.5H23.8705L23.9783 15.1456L23.5 15ZM9.5 14.5C9.22386 14.5 9 14.7239 9 15C9 15.2761 9.22386 15.5 9.5 15.5V14.5ZM7.51073 11.103C7.56761 11.3732 7.83279 11.5462 8.10301 11.4893C8.37322 11.4324 8.54616 11.1672 8.48927 10.897L7.51073 11.103ZM6 1.5L6.48927 1.39699L6.42135 1.07437L6.09806 1.00971L6 1.5ZM1.09806 0.00970966C0.827278 -0.0444463 0.563866 0.131162 0.50971 0.401942C0.455554 0.672722 0.631162 0.936134 0.901942 0.99029L1.09806 0.00970966ZM12.5 21C12.5 21.8284 11.8284 22.5 11 22.5V23.5C12.3807 23.5 13.5 22.3807 13.5 21H12.5ZM11 22.5C10.1716 22.5 9.5 21.8284 9.5 21H8.5C8.5 22.3807 9.61929 23.5 11 23.5V22.5ZM9.5 21C9.5 20.1716 10.1716 19.5 11 19.5V18.5C9.61929 18.5 8.5 19.6193 8.5 21H9.5ZM11 19.5C11.8284 19.5 12.5 20.1716 12.5 21H13.5C13.5 19.6193 12.3807 18.5 11 18.5V19.5ZM22.5 21C22.5 21.8284 21.8284 22.5 21 22.5V23.5C22.3807 23.5 23.5 22.3807 23.5 21H22.5ZM21 22.5C20.1716 22.5 19.5 21.8284 19.5 21H18.5C18.5 22.3807 19.6193 23.5 21 23.5V22.5ZM19.5 21C19.5 20.1716 20.1716 19.5 21 19.5V18.5C19.6193 18.5 18.5 19.6193 18.5 21H19.5ZM21 19.5C21.8284 19.5 22.5 20.1716 22.5 21H23.5C23.5 19.6193 22.3807 18.5 21 18.5V19.5ZM26.5217 3.35442L23.0217 14.8544L23.9783 15.1456L27.4783 3.64558L26.5217 3.35442ZM23.5 14.5H9.5V15.5H23.5V14.5ZM8.48927 10.897L6.48927 1.39699L5.51073 1.60301L7.51073 11.103L8.48927 10.897ZM6.09806 1.00971L1.09806 0.00970966L0.901942 0.99029L5.90194 1.99029L6.09806 1.00971Z" fill="white"/>
<circle cx="15" cy="6" r="1" fill="#FDA41D"/>
<circle cx="19" cy="6" r="1" fill="#FDA41D"/>
<circle cx="15" cy="10" r="1" fill="#FDA41D"/>
<circle cx="19" cy="10" r="1" fill="#FDA41D"/>
</svg>
