<svg width="147" height="63" viewBox="0 0 147 63" fill="none" xmlns="http://www.w3.org/2000/svg">
    <circle class="svg-dot-list__item svg-dot-list__item_blink" cx="1.5" cy="13.4512" r="1.5" fill-opacity="0.09"/>
    <circle class="svg-dot-list__item svg-dot-list__item_blink" cx="7.4729" cy="19.429" r="1.5" fill-opacity="0.09"/>
    <circle class="svg-dot-list__item svg-dot-list__item_blink" cx="1.5" cy="25.4023" r="1.5" fill-opacity="0.09"/>
    <circle class="svg-dot-list__item svg-dot-list__item_blink" cx="7.4729" cy="31.3801" r="1.5" fill-opacity="0.09"/>
    <circle class="svg-dot-list__item svg-dot-list__item_blink" cx="1.5" cy="37.3535" r="1.5" fill-opacity="0.09"/>
    <circle class="svg-dot-list__item svg-dot-list__item_blink" cx="7.4729" cy="43.3313" r="1.5" fill-opacity="0.09"/>
    <circle class="svg-dot-list__item svg-dot-list__item_blink" cx="1.5" cy="49.3047" r="1.5" fill-opacity="0.09"/>
    <circle class="svg-dot-list__item svg-dot-list__item_blink" cx="7.4729" cy="55.2825" r="1.5" fill-opacity="0.09"/>
    <circle class="svg-dot-list__item svg-dot-list__item_blink" cx="13.4512" cy="13.4512" r="1.5" fill-opacity="0.09"/>
    <circle class="svg-dot-list__item svg-dot-list__item_blink" cx="19.429" cy="19.429" r="1.5" fill-opacity="0.09"/>
    <circle class="svg-dot-list__item svg-dot-list__item_blink" cx="13.4512" cy="25.4023" r="1.5" fill-opacity="0.09"/>
    <circle class="svg-dot-list__item svg-dot-list__item_blink" cx="19.429" cy="31.3801" r="1.5" fill-opacity="0.09"/>
    <circle class="svg-dot-list__item svg-dot-list__item_blink" cx="13.4512" cy="37.3535" r="1.5" fill-opacity="0.09"/>
    <circle class="svg-dot-list__item svg-dot-list__item_blink" cx="19.429" cy="43.3313" r="1.5" fill-opacity="0.09"/>
    <circle class="svg-dot-list__item svg-dot-list__item_blink" cx="13.4512" cy="49.3047" r="1.5" fill-opacity="0.09"/>
    <circle class="svg-dot-list__item svg-dot-list__item_blink" cx="19.429" cy="55.2825" r="1.5" fill-opacity="0.09"/>
    <circle class="svg-dot-list__item svg-dot-list__item_blink" cx="25.4023" cy="13.4512" r="1.5" fill-opacity="0.09"/>
    <circle class="svg-dot-list__item svg-dot-list__item_blink" cx="31.3801" cy="19.429" r="1.5" fill-opacity="0.09"/>
    <circle class="svg-dot-list__item svg-dot-list__item_blink" cx="25.4023" cy="25.4023" r="1.5" fill-opacity="0.09"/>
    <circle class="svg-dot-list__item svg-dot-list__item_blink" cx="31.3801" cy="31.3801" r="1.5" fill-opacity="0.09"/>
    <circle class="svg-dot-list__item svg-dot-list__item_blink" cx="25.4023" cy="37.3535" r="1.5" fill-opacity="0.09"/>
    <circle class="svg-dot-list__item svg-dot-list__item_blink" cx="31.3801" cy="43.3313" r="1.5" fill-opacity="0.09"/>
    <circle class="svg-dot-list__item svg-dot-list__item_blink" cx="25.4023" cy="49.3047" r="1.5" fill-opacity="0.09"/>
    <circle class="svg-dot-list__item svg-dot-list__item_blink" cx="31.3801" cy="55.2825" r="1.5" fill-opacity="0.09"/>
    <circle class="svg-dot-list__item svg-dot-list__item_blink" cx="37.3535" cy="13.4512" r="1.5" fill-opacity="0.09"/>
    <circle class="svg-dot-list__item svg-dot-list__item_blink" cx="43.3313" cy="19.429" r="1.5" fill-opacity="0.09"/>
    <circle class="svg-dot-list__item svg-dot-list__item_blink" cx="37.3535" cy="25.4023" r="1.5" fill-opacity="0.09"/>
    <circle class="svg-dot-list__item svg-dot-list__item_blink" cx="43.3313" cy="31.3801" r="1.5" fill-opacity="0.09"/>
    <circle class="svg-dot-list__item svg-dot-list__item_blink" cx="37.3535" cy="37.3535" r="1.5" fill-opacity="0.09"/>
    <circle class="svg-dot-list__item svg-dot-list__item_blink" cx="43.3313" cy="43.3313" r="1.5" fill-opacity="0.09"/>
    <circle class="svg-dot-list__item svg-dot-list__item_blink" cx="37.3535" cy="49.3047" r="1.5" fill-opacity="0.09"/>
    <circle class="svg-dot-list__item svg-dot-list__item_blink" cx="43.3313" cy="55.2825" r="1.5" fill-opacity="0.09"/>
    <circle class="svg-dot-list__item svg-dot-list__item_blink" cx="49.3047" cy="13.4512" r="1.5" fill-opacity="0.09"/>
    <circle class="svg-dot-list__item svg-dot-list__item_blink" cx="55.2825" cy="19.429" r="1.5" fill-opacity="0.09"/>
    <circle class="svg-dot-list__item svg-dot-list__item_blink" cx="49.3047" cy="25.4023" r="1.5" fill-opacity="0.09"/>
    <circle class="svg-dot-list__item svg-dot-list__item_blink" cx="55.2825" cy="31.3801" r="1.5" fill-opacity="0.09"/>
    <circle class="svg-dot-list__item svg-dot-list__item_blink" cx="49.3047" cy="37.3535" r="1.5" fill-opacity="0.09"/>
    <circle class="svg-dot-list__item svg-dot-list__item_blink" cx="55.2825" cy="43.3313" r="1.5" fill-opacity="0.09"/>
    <circle class="svg-dot-list__item svg-dot-list__item_blink" cx="49.3047" cy="49.3047" r="1.5" fill-opacity="0.09"/>
    <circle class="svg-dot-list__item svg-dot-list__item_blink" cx="55.2825" cy="55.2825" r="1.5" fill-opacity="0.09"/>
    <circle class="svg-dot-list__item svg-dot-list__item_blink" cx="61.2559" cy="13.4512" r="1.5" fill-opacity="0.09"/>
    <circle class="svg-dot-list__item svg-dot-list__item_blink" cx="67.2336" cy="19.429" r="1.5" fill-opacity="0.09"/>
    <circle class="svg-dot-list__item svg-dot-list__item_blink" cx="61.2559" cy="25.4023" r="1.5" fill-opacity="0.09"/>
    <circle class="svg-dot-list__item svg-dot-list__item_blink" cx="67.2336" cy="31.3801" r="1.5" fill-opacity="0.09"/>
    <circle class="svg-dot-list__item svg-dot-list__item_blink" cx="61.2559" cy="37.3535" r="1.5" fill-opacity="0.09"/>
    <circle class="svg-dot-list__item svg-dot-list__item_blink" cx="67.2336" cy="43.3313" r="1.5" fill-opacity="0.09"/>
    <circle class="svg-dot-list__item svg-dot-list__item_blink" cx="61.2559" cy="49.3047" r="1.5" fill-opacity="0.09"/>
    <circle class="svg-dot-list__item svg-dot-list__item_blink" cx="67.2336" cy="55.2825" r="1.5" fill-opacity="0.09"/>
    <circle class="svg-dot-list__item svg-dot-list__item_blink" cx="73.207" cy="13.4512" r="1.5" fill-opacity="0.09"/>
    <circle class="svg-dot-list__item svg-dot-list__item_blink" cx="79.1848" cy="19.429" r="1.5" fill-opacity="0.09"/>
    <circle class="svg-dot-list__item svg-dot-list__item_blink" cx="73.207" cy="25.4023" r="1.5" fill-opacity="0.09"/>
    <circle class="svg-dot-list__item svg-dot-list__item_blink" cx="79.1848" cy="31.3801" r="1.5" fill-opacity="0.09"/>
    <circle class="svg-dot-list__item svg-dot-list__item_blink" cx="73.207" cy="37.3535" r="1.5" fill-opacity="0.09"/>
    <circle class="svg-dot-list__item svg-dot-list__item_blink" cx="79.1848" cy="43.3313" r="1.5" fill-opacity="0.09"/>
    <circle class="svg-dot-list__item svg-dot-list__item_blink" cx="73.207" cy="49.3047" r="1.5" fill-opacity="0.09"/>
    <circle class="svg-dot-list__item svg-dot-list__item_blink" cx="79.1848" cy="55.2825" r="1.5" fill-opacity="0.09"/>
    <circle class="svg-dot-list__item svg-dot-list__item_blink" cx="85.1582" cy="13.4512" r="1.5" fill-opacity="0.09"/>
    <circle class="svg-dot-list__item svg-dot-list__item_blink" cx="91.136" cy="19.429" r="1.5" fill-opacity="0.09"/>
    <circle class="svg-dot-list__item svg-dot-list__item_blink" cx="85.1582" cy="25.4023" r="1.5" fill-opacity="0.09"/>
    <circle class="svg-dot-list__item svg-dot-list__item_blink" cx="91.136" cy="31.3801" r="1.5" fill-opacity="0.09"/>
    <circle class="svg-dot-list__item svg-dot-list__item_blink" cx="85.1582" cy="37.3535" r="1.5" fill-opacity="0.09"/>
    <circle class="svg-dot-list__item svg-dot-list__item_blink" cx="91.136" cy="43.3313" r="1.5" fill-opacity="0.09"/>
    <circle class="svg-dot-list__item svg-dot-list__item_blink" cx="85.1582" cy="49.3047" r="1.5" fill-opacity="0.09"/>
    <circle class="svg-dot-list__item svg-dot-list__item_blink" cx="91.136" cy="55.2825" r="1.5" fill-opacity="0.09"/>
    <circle class="svg-dot-list__item svg-dot-list__item_blink" cx="97.1094" cy="13.4512" r="1.5" fill-opacity="0.09"/>
    <circle class="svg-dot-list__item svg-dot-list__item_blink" cx="1.5" cy="1.5" r="1.5" fill-opacity="0.09"/>
    <circle class="svg-dot-list__item svg-dot-list__item_blink" cx="7.4729" cy="7.4729" r="1.5" fill-opacity="0.09"/>
    <circle class="svg-dot-list__item svg-dot-list__item_blink" cx="13.4512" cy="1.5" r="1.5" fill-opacity="0.09"/>
    <circle class="svg-dot-list__item svg-dot-list__item_blink" cx="19.429" cy="7.4729" r="1.5" fill-opacity="0.09"/>
    <circle class="svg-dot-list__item svg-dot-list__item_blink" cx="25.4023" cy="1.5" r="1.5" fill-opacity="0.09"/>
    <circle class="svg-dot-list__item svg-dot-list__item_blink" cx="31.3801" cy="7.4729" r="1.5" fill-opacity="0.09"/>
    <circle class="svg-dot-list__item svg-dot-list__item_blink" cx="37.3535" cy="1.5" r="1.5" fill-opacity="0.09"/>
    <circle class="svg-dot-list__item svg-dot-list__item_blink" cx="43.3313" cy="7.4729" r="1.5" fill-opacity="0.09"/>
    <circle class="svg-dot-list__item svg-dot-list__item_blink" cx="49.3047" cy="1.5" r="1.5" fill-opacity="0.09"/>
    <circle class="svg-dot-list__item svg-dot-list__item_blink" cx="55.2825" cy="7.4729" r="1.5" fill-opacity="0.09"/>
    <circle class="svg-dot-list__item svg-dot-list__item_blink" cx="61.2559" cy="1.5" r="1.5" fill-opacity="0.09"/>
    <circle class="svg-dot-list__item svg-dot-list__item_blink" cx="67.2336" cy="7.4729" r="1.5" fill-opacity="0.09"/>
    <circle class="svg-dot-list__item svg-dot-list__item_blink" cx="73.207" cy="1.5" r="1.5" fill-opacity="0.09"/>
    <circle class="svg-dot-list__item svg-dot-list__item_blink" cx="79.1848" cy="7.4729" r="1.5" fill-opacity="0.09"/>
    <circle class="svg-dot-list__item svg-dot-list__item_blink" cx="85.1582" cy="1.5" r="1.5" fill-opacity="0.09"/>
    <circle class="svg-dot-list__item svg-dot-list__item_blink" cx="91.136" cy="7.4729" r="1.5" fill-opacity="0.09"/>
    <circle class="svg-dot-list__item svg-dot-list__item_blink" cx="97.1094" cy="1.5" r="1.5" fill-opacity="0.09"/>
    <circle class="svg-dot-list__item svg-dot-list__item_blink" cx="97.1094" cy="25.4023" r="1.5" fill-opacity="0.09"/>
    <circle class="svg-dot-list__item svg-dot-list__item_blink" cx="97.1094" cy="37.3535" r="1.5" fill-opacity="0.09"/>
    <circle class="svg-dot-list__item svg-dot-list__item_blink" cx="97.1094" cy="49.3047" r="1.5" fill-opacity="0.09"/>
    <circle class="svg-dot-list__item svg-dot-list__item_blink" cx="103.087" cy="19.429" r="1.5" fill-opacity="0.09"/>
    <circle class="svg-dot-list__item svg-dot-list__item_blink" cx="109.061" cy="25.4023" r="1.5" fill-opacity="0.09"/>
    <circle class="svg-dot-list__item svg-dot-list__item_blink" cx="103.087" cy="31.3801" r="1.5" fill-opacity="0.09"/>
    <circle class="svg-dot-list__item svg-dot-list__item_blink" cx="109.061" cy="37.3535" r="1.5" fill-opacity="0.09"/>
    <circle class="svg-dot-list__item svg-dot-list__item_blink" cx="103.087" cy="43.3313" r="1.5" fill-opacity="0.09"/>
    <circle class="svg-dot-list__item svg-dot-list__item_blink" cx="109.061" cy="49.3047" r="1.5" fill-opacity="0.09"/>
    <circle class="svg-dot-list__item svg-dot-list__item_blink" cx="103.087" cy="55.2825" r="1.5" fill-opacity="0.09"/>
    <circle class="svg-dot-list__item svg-dot-list__item_blink" cx="115.038" cy="19.429" r="1.5" fill-opacity="0.09"/>
    <circle class="svg-dot-list__item svg-dot-list__item_blink" cx="121.012" cy="25.4023" r="1.5" fill-opacity="0.09"/>
    <circle class="svg-dot-list__item svg-dot-list__item_blink" cx="115.038" cy="31.3801" r="1.5" fill-opacity="0.09"/>
    <circle class="svg-dot-list__item svg-dot-list__item_blink" cx="121.012" cy="37.3535" r="1.5" fill-opacity="0.09"/>
    <circle class="svg-dot-list__item svg-dot-list__item_blink" cx="115.038" cy="43.3313" r="1.5" fill-opacity="0.09"/>
    <circle class="svg-dot-list__item svg-dot-list__item_blink" cx="121.012" cy="49.3047" r="1.5" fill-opacity="0.09"/>
    <circle class="svg-dot-list__item svg-dot-list__item_blink" cx="115.038" cy="55.2825" r="1.5" fill-opacity="0.09"/>
    <circle class="svg-dot-list__item svg-dot-list__item_blink" cx="126.99" cy="19.429" r="1.5" fill-opacity="0.09"/>
    <circle class="svg-dot-list__item svg-dot-list__item_blink" cx="132.963" cy="25.4023" r="1.5" fill-opacity="0.09"/>
    <circle class="svg-dot-list__item svg-dot-list__item_blink" cx="126.99" cy="31.3801" r="1.5" fill-opacity="0.09"/>
    <circle class="svg-dot-list__item svg-dot-list__item_blink" cx="132.963" cy="37.3535" r="1.5" fill-opacity="0.09"/>
    <circle class="svg-dot-list__item svg-dot-list__item_blink" cx="126.99" cy="43.3313" r="1.5" fill-opacity="0.09"/>
    <circle class="svg-dot-list__item svg-dot-list__item_blink" cx="132.963" cy="49.3047" r="1.5" fill-opacity="0.09"/>
    <circle class="svg-dot-list__item svg-dot-list__item_blink" cx="126.99" cy="55.2825" r="1.5" fill-opacity="0.09"/>
    <circle class="svg-dot-list__item svg-dot-list__item_blink" cx="138.941" cy="19.429" r="1.5" fill-opacity="0.09"/>
    <circle class="svg-dot-list__item svg-dot-list__item_blink" cx="144.915" cy="25.4023" r="1.5" fill-opacity="0.09"/>
    <circle class="svg-dot-list__item svg-dot-list__item_blink" cx="138.941" cy="31.3801" r="1.5" fill-opacity="0.09"/>
    <circle class="svg-dot-list__item svg-dot-list__item_blink" cx="144.915" cy="37.3535" r="1.5" fill-opacity="0.09"/>
    <circle class="svg-dot-list__item svg-dot-list__item_blink" cx="138.941" cy="43.3313" r="1.5" fill-opacity="0.09"/>
    <circle class="svg-dot-list__item svg-dot-list__item_blink" cx="144.915" cy="49.3047" r="1.5" fill-opacity="0.09"/>
    <circle class="svg-dot-list__item svg-dot-list__item_blink" cx="138.941" cy="55.2825" r="1.5" fill-opacity="0.09"/>
    <circle class="svg-dot-list__item svg-dot-list__item_blink" cx="103.087" cy="7.4729" r="1.5" fill-opacity="0.09"/>
    <circle class="svg-dot-list__item svg-dot-list__item_blink" cx="109.061" cy="13.4512" r="1.5" fill-opacity="0.09"/>
    <circle class="svg-dot-list__item svg-dot-list__item_blink" cx="115.038" cy="7.4729" r="1.5" fill-opacity="0.09"/>
    <circle class="svg-dot-list__item svg-dot-list__item_blink" cx="121.012" cy="13.4512" r="1.5" fill-opacity="0.09"/>
    <circle class="svg-dot-list__item svg-dot-list__item_blink" cx="126.99" cy="7.4729" r="1.5" fill-opacity="0.09"/>
    <circle class="svg-dot-list__item svg-dot-list__item_blink" cx="132.963" cy="13.4512" r="1.5" fill-opacity="0.09"/>
    <circle class="svg-dot-list__item svg-dot-list__item_blink" cx="138.941" cy="7.4729" r="1.5" fill-opacity="0.09"/>
    <circle class="svg-dot-list__item svg-dot-list__item_blink" cx="144.915" cy="13.4512" r="1.5" fill-opacity="0.09"/>
    <circle class="svg-dot-list__item svg-dot-list__item_blink" cx="109.061" cy="1.5" r="1.5" fill-opacity="0.09"/>
    <circle class="svg-dot-list__item svg-dot-list__item_blink" cx="121.012" cy="1.5" r="1.5" fill-opacity="0.09"/>
    <circle class="svg-dot-list__item svg-dot-list__item_blink" cx="132.963" cy="1.5" r="1.5" fill-opacity="0.09"/>
    <circle class="svg-dot-list__item svg-dot-list__item_blink" cx="144.915" cy="1.5" r="1.5" fill-opacity="0.09"/>
    <circle class="svg-dot-list__item svg-dot-list__item_static" cx="1.5" cy="61.2559" r="1.5" fill="#FDA41D"/>
    <circle class="svg-dot-list__item svg-dot-list__item_static" cx="13.4512" cy="61.2559" r="1.5" fill="#FDA41D"/>
    <circle class="svg-dot-list__item svg-dot-list__item_static" cx="25.4023" cy="61.2559" r="1.5" fill="#FDA41D"/>
    <circle class="svg-dot-list__item svg-dot-list__item_static" cx="37.3535" cy="61.2559" r="1.5" fill="#FDA41D"/>
    <circle class="svg-dot-list__item svg-dot-list__item_static" cx="49.3047" cy="61.2559" r="1.5" fill="#FDA41D"/>
    <circle class="svg-dot-list__item svg-dot-list__item_static" cx="61.2559" cy="61.2559" r="1.5" fill="#FDA41D"/>
    <circle class="svg-dot-list__item svg-dot-list__item_static" cx="73.207" cy="61.2559" r="1.5" fill="#FDA41D"/>
    <circle class="svg-dot-list__item svg-dot-list__item_static" cx="85.1582" cy="61.2559" r="1.5" fill="#FDA41D"/>
    <circle class="svg-dot-list__item svg-dot-list__item_static" cx="97.1094" cy="61.2559" r="1.5" fill="#FDA41D"/>
    <circle class="svg-dot-list__item svg-dot-list__item_static" cx="109.061" cy="61.2559" r="1.5" fill="#FDA41D"/>
    <circle class="svg-dot-list__item svg-dot-list__item_static" cx="121.012" cy="61.2559" r="1.5" fill="#FDA41D"/>
    <circle class="svg-dot-list__item svg-dot-list__item_static" cx="132.963" cy="61.2559" r="1.5" fill="#FDA41D"/>
    <circle class="svg-dot-list__item svg-dot-list__item_static" cx="144.915" cy="61.2559" r="1.5" fill="#FDA41D"/>
</svg>
