<svg width="12" height="12" viewBox="0 0 12 12" fill="none" xmlns="http://www.w3.org/2000/svg">
<path d="M12 10.5C12 9.67157 11.3284 9 10.5 9C9.67157 9 9 9.67157 9 10.5C9 11.3284 9.67157 12 10.5 12C11.3284 12 12 11.3284 12 10.5Z" fill="white" fill-opacity="0.6"/>
<path d="M3 10.5C3 9.67157 2.32843 9 1.5 9C0.671573 9 0 9.67157 0 10.5C0 11.3284 0.671573 12 1.5 12C2.32843 12 3 11.3284 3 10.5Z" fill="white" fill-opacity="0.6"/>
<path d="M12 1.5C12 0.671573 11.3284 0 10.5 0C9.67157 0 9 0.671573 9 1.5C9 2.32843 9.67157 3 10.5 3C11.3284 3 12 2.32843 12 1.5Z" fill="white" fill-opacity="0.6"/>
<path d="M3 1.5C3 0.671573 2.32843 0 1.5 0C0.671573 0 0 0.671573 0 1.5C0 2.32843 0.671573 3 1.5 3C2.32843 3 3 2.32843 3 1.5Z" fill="white" fill-opacity="0.6"/>
</svg>
