<svg width="238" height="441" viewBox="0 0 238 441" fill="none" xmlns="http://www.w3.org/2000/svg">
<path d="M237.5 440.5H0.5V405V375.5V374V369.5V353.5V12.5V0.5H11.5H210.29L237.5 28.2045V369.5V405V440.5Z" stroke="#FDA41D" stroke-opacity="0.35"/>
<path d="M1 113H14" stroke="#FDA41D" stroke-opacity="0.3"/>
<path d="M1 166H14" stroke="#FDA41D" stroke-opacity="0.3"/>
<path d="M1 220H14" stroke="#FDA41D" stroke-opacity="0.3"/>
<path d="M5.5 118.5H10.5" stroke="#FDA41D" stroke-opacity="0.3"/>
<path d="M5.5 124.5H10.5" stroke="#FDA41D" stroke-opacity="0.3"/>
<path d="M5.5 130.5H10.5" stroke="#FDA41D" stroke-opacity="0.3"/>
<path d="M5.5 136.5H10.5" stroke="#FDA41D" stroke-opacity="0.3"/>
<path d="M5.5 142.5H10.5" stroke="#FDA41D" stroke-opacity="0.3"/>
<path d="M5.5 148.5H10.5" stroke="#FDA41D" stroke-opacity="0.3"/>
<path d="M5.5 154.5H10.5" stroke="#FDA41D" stroke-opacity="0.3"/>
<path d="M5.5 160.5H10.5" stroke="#FDA41D" stroke-opacity="0.3"/>
<path d="M5.5 64H10.5" stroke="#FDA41D" stroke-opacity="0.3"/>
<path d="M5.5 70H10.5" stroke="#FDA41D" stroke-opacity="0.3"/>
<path d="M5.5 76H10.5" stroke="#FDA41D" stroke-opacity="0.3"/>
<path d="M5.5 82H10.5" stroke="#FDA41D" stroke-opacity="0.3"/>
<path d="M5.5 88H10.5" stroke="#FDA41D" stroke-opacity="0.3"/>
<path d="M5.5 94H10.5" stroke="#FDA41D" stroke-opacity="0.3"/>
<path d="M5.5 100H10.5" stroke="#FDA41D" stroke-opacity="0.3"/>
<path d="M5.5 106H10.5" stroke="#FDA41D" stroke-opacity="0.3"/>
<path d="M5.5 172.5H10.5" stroke="#FDA41D" stroke-opacity="0.3"/>
<path d="M5.5 178.5H10.5" stroke="#FDA41D" stroke-opacity="0.3"/>
<path d="M5.5 184.5H10.5" stroke="#FDA41D" stroke-opacity="0.3"/>
<path d="M5.5 190.5H10.5" stroke="#FDA41D" stroke-opacity="0.3"/>
<path d="M5.5 196.5H10.5" stroke="#FDA41D" stroke-opacity="0.3"/>
<path d="M5.5 202.5H10.5" stroke="#FDA41D" stroke-opacity="0.3"/>
<path d="M5.5 208.5H10.5" stroke="#FDA41D" stroke-opacity="0.3"/>
<path d="M5.5 214.5H10.5" stroke="#FDA41D" stroke-opacity="0.3"/>
<path d="M5.5 226.5H10.5" stroke="#FDA41D" stroke-opacity="0.3"/>
<path d="M5.5 232.5H10.5" stroke="#FDA41D" stroke-opacity="0.3"/>
<path d="M5.5 238.5H10.5" stroke="#FDA41D" stroke-opacity="0.3"/>
<path d="M5.5 244.5H10.5" stroke="#FDA41D" stroke-opacity="0.3"/>
<path d="M5.5 250.5H10.5" stroke="#FDA41D" stroke-opacity="0.3"/>
<path d="M5.5 256.5H10.5" stroke="#FDA41D" stroke-opacity="0.3"/>
<path d="M5.5 262.5H10.5" stroke="#FDA41D" stroke-opacity="0.3"/>
<path d="M5.5 268.5H10.5" stroke="#FDA41D" stroke-opacity="0.3"/>
<path d="M224 113H237" stroke="#FDA41D" stroke-opacity="0.3"/>
<path d="M224 166H237" stroke="#FDA41D" stroke-opacity="0.3"/>
<path d="M224 220H237" stroke="#FDA41D" stroke-opacity="0.3"/>
<path d="M228.5 118.5H233.5" stroke="#FDA41D" stroke-opacity="0.3"/>
<path d="M228.5 124.5H233.5" stroke="#FDA41D" stroke-opacity="0.3"/>
<path d="M228.5 130.5H233.5" stroke="#FDA41D" stroke-opacity="0.3"/>
<path d="M228.5 136.5H233.5" stroke="#FDA41D" stroke-opacity="0.3"/>
<path d="M228.5 142.5H233.5" stroke="#FDA41D" stroke-opacity="0.3"/>
<path d="M228.5 148.5H233.5" stroke="#FDA41D" stroke-opacity="0.3"/>
<path d="M228.5 154.5H233.5" stroke="#FDA41D" stroke-opacity="0.3"/>
<path d="M228.5 160.5H233.5" stroke="#FDA41D" stroke-opacity="0.3"/>
<path d="M228.5 64H233.5" stroke="#FDA41D" stroke-opacity="0.3"/>
<path d="M228.5 70H233.5" stroke="#FDA41D" stroke-opacity="0.3"/>
<path d="M228.5 76H233.5" stroke="#FDA41D" stroke-opacity="0.3"/>
<path d="M228.5 82H233.5" stroke="#FDA41D" stroke-opacity="0.3"/>
<path d="M228.5 88H233.5" stroke="#FDA41D" stroke-opacity="0.3"/>
<path d="M228.5 94H233.5" stroke="#FDA41D" stroke-opacity="0.3"/>
<path d="M228.5 100H233.5" stroke="#FDA41D" stroke-opacity="0.3"/>
<path d="M228.5 106H233.5" stroke="#FDA41D" stroke-opacity="0.3"/>
<path d="M228.5 172.5H233.5" stroke="#FDA41D" stroke-opacity="0.3"/>
<path d="M228.5 178.5H233.5" stroke="#FDA41D" stroke-opacity="0.3"/>
<path d="M228.5 184.5H233.5" stroke="#FDA41D" stroke-opacity="0.3"/>
<path d="M228.5 190.5H233.5" stroke="#FDA41D" stroke-opacity="0.3"/>
<path d="M228.5 196.5H233.5" stroke="#FDA41D" stroke-opacity="0.3"/>
<path d="M228.5 202.5H233.5" stroke="#FDA41D" stroke-opacity="0.3"/>
<path d="M228.5 208.5H233.5" stroke="#FDA41D" stroke-opacity="0.3"/>
<path d="M228.5 214.5H233.5" stroke="#FDA41D" stroke-opacity="0.3"/>
<path d="M228.5 226.5H233.5" stroke="#FDA41D" stroke-opacity="0.3"/>
<path d="M228.5 232.5H233.5" stroke="#FDA41D" stroke-opacity="0.3"/>
<path d="M228.5 238.5H233.5" stroke="#FDA41D" stroke-opacity="0.3"/>
<path d="M228.5 244.5H233.5" stroke="#FDA41D" stroke-opacity="0.3"/>
<path d="M228.5 250.5H233.5" stroke="#FDA41D" stroke-opacity="0.3"/>
<path d="M228.5 256.5H233.5" stroke="#FDA41D" stroke-opacity="0.3"/>
<path d="M228.5 262.5H233.5" stroke="#FDA41D" stroke-opacity="0.3"/>
<path d="M228.5 268.5H233.5" stroke="#FDA41D" stroke-opacity="0.3"/>
</svg>
