<svg width="397" height="308" viewBox="0 0 397 308" fill="none" xmlns="http://www.w3.org/2000/svg">
<circle cx="198" cy="154" r="152.5" stroke="white" stroke-opacity="0.3" stroke-linejoin="round" stroke-dasharray="1 4"/>
<path d="M45 154H351.5" stroke="white" stroke-opacity="0.3" stroke-dasharray="1 4"/>
<path d="M198 307V0.5" stroke="white" stroke-opacity="0.3" stroke-dasharray="1 4"/>
<path fill-rule="evenodd" clip-rule="evenodd" d="M144.963 2H0V10H126.152C132.212 6.94946 138.492 4.27271 144.963 2ZM122.31 12H0V19H110.536C114.351 16.5051 118.279 14.1687 122.31 12ZM107.552 21H0V29H96.8784C100.32 26.1899 103.881 23.5205 107.552 21ZM94.4769 31H0V38H86.7569C89.2532 35.5847 91.8279 33.25 94.4769 31ZM84.726 40H0V48H77.2699C79.6644 45.249 82.1514 42.5808 84.726 40ZM75.5576 50H0V57H69.9883C71.7805 54.614 73.6378 52.2798 75.5576 50ZM68.5101 59H0V67H63.0541C64.7937 64.2761 66.6135 61.6082 68.5101 59ZM61.7975 69H0V77H57.1673C58.6354 74.2852 60.1798 71.6174 61.7975 69ZM56.104 79H0V86H52.6613C53.7534 83.635 54.9015 81.301 56.104 79ZM51.7544 88H0V96H48.4512C49.4819 93.2974 50.5837 90.6301 51.7544 88ZM47.7039 98H0V105H45.3248C46.0652 102.643 46.8587 100.309 47.7039 98ZM44.7111 107H0V115H42.5398C43.196 112.306 43.9204 109.639 44.7111 107ZM42.0663 117H0V124H40.6215C41.0521 121.648 41.5341 119.314 42.0663 117ZM40.2685 126H0V134H39.1164C39.4344 131.312 39.819 128.645 40.2685 126ZM38.8925 136H0V144H38.2489C38.3977 141.315 38.6128 138.648 38.8925 136ZM38.1504 146H0V153H38C38 150.655 38.0505 148.321 38.1504 146Z" fill="white" fill-opacity="0.17"/>
<path fill-rule="evenodd" clip-rule="evenodd" d="M270.811 10C264.751 6.94946 258.471 4.27271 252 2H396.963V10H270.811ZM286.426 19C282.612 16.5051 278.684 14.1687 274.653 12H396.963V19H286.426ZM300.084 29C296.643 26.1899 293.082 23.5205 289.411 21H396.963V29H300.084ZM310.206 38C307.71 35.5847 305.135 33.25 302.486 31H396.963V38H310.206ZM319.693 48C317.298 45.249 314.811 42.5808 312.237 40H396.963V48H319.693ZM326.974 57C325.182 54.614 323.325 52.2798 321.405 50H396.963V57H326.974ZM333.909 67C332.169 64.2761 330.349 61.6082 328.453 59H396.963V67H333.909ZM339.796 77C338.327 74.2852 336.783 71.6174 335.165 69H396.963V77H339.796ZM344.302 86C343.209 83.635 342.061 81.301 340.859 79H396.963V86H344.302ZM348.512 96C347.481 93.2974 346.379 90.6301 345.208 88H396.963V96H348.512ZM351.638 105C350.898 102.643 350.104 100.309 349.259 98H396.963V105H351.638ZM354.423 115C353.767 112.306 353.042 109.639 352.252 107H396.963V115H354.423ZM356.341 124C355.911 121.648 355.429 119.314 354.897 117H396.963V124H356.341ZM357.846 134C357.528 131.312 357.144 128.645 356.694 126H396.963V134H357.846ZM358.714 144C358.565 141.315 358.35 138.648 358.07 136H396.963V144H358.714ZM358.963 153H396.963V146H358.812C358.912 148.321 358.963 150.655 358.963 153Z" fill="white" fill-opacity="0.17"/>
</svg>
