<svg width="1366" height="428" viewBox="0 0 1366 428" fill="none" xmlns="http://www.w3.org/2000/svg">
<path d="M47 27.5H47.5V27.2037L47.2401 27.0614L47 27.5ZM47 396.5L47.2702 396.921L47.5 396.773V396.5H47ZM1319 27L1318.76 26.5614L1318.5 26.7037V27H1319ZM1319 396H1318.5V396.273L1318.73 396.421L1319 396ZM-0.740073 1.93859L46.7599 27.9386L47.2401 27.0614L-0.259927 1.06141L-0.740073 1.93859ZM46.7298 396.079L-0.770155 426.579L-0.229845 427.421L47.2702 396.921L46.7298 396.079ZM46.5 27.5V212H47.5V27.5H46.5ZM46.5 212V396.5H47.5V212H46.5ZM47 212.5H1319V211.5H47V212.5ZM1366.26 0.561406L1318.76 26.5614L1319.24 27.4386L1366.74 1.43859L1366.26 0.561406ZM1318.5 27V396H1319.5V27H1318.5ZM1318.73 396.421L1366.23 426.921L1366.77 426.079L1319.27 395.579L1318.73 396.421Z" fill="white" fill-opacity="0.1"/>
</svg>
