<svg width="160" height="33" viewBox="0 0 160 33" fill="none" xmlns="http://www.w3.org/2000/svg">
<path d="M25.4152 26.772L30.5825 21.5389L26.2146 14.957C26.0848 14.7846 25.7931 14.5226 25.34 14.1724C24.8877 13.8222 24.5221 13.5953 24.2449 13.4919H31.831V13.8091C31.831 13.9172 31.8679 14.026 31.9416 14.1332L34.3597 17.6874L37.74 14.2375C37.8652 14.1379 37.9282 13.9953 37.9282 13.8091V13.4919H41.8675C41.75 13.4919 41.3968 13.7401 40.8079 14.2375L35.5884 19.548L39.8978 26.0586C40.0537 26.2486 40.3563 26.5145 40.8048 26.8563C41.2532 27.198 41.6072 27.418 41.8675 27.5176H34.2292V27.1995C34.2292 27.0915 34.1839 26.9858 34.0933 26.8823L31.831 23.4255L28.5291 26.772C28.4247 26.9322 28.3725 27.0747 28.3725 27.1995V27.5176H24.3748C24.4661 27.4877 24.6089 27.4142 24.804 27.297C24.999 27.1804 25.2026 27.0057 25.4152 26.772Z" fill="white"/>
<path d="M43.9083 13.8612C43.7893 13.6152 43.6366 13.4919 43.45 13.4919H48.7462C48.9106 13.4919 49.0533 13.6366 49.1746 13.9263C49.2959 14.216 49.3567 14.5401 49.3567 14.8987C49.3567 14.6267 49.4857 14.3241 49.7437 13.9907C50.0009 13.6581 50.2796 13.4919 50.5783 13.4919H58.1937C58.8918 13.4919 59.496 13.7501 60.0067 14.2666C60.518 14.7831 60.7739 15.3938 60.7739 16.098V24.9175C60.7739 25.6218 60.518 26.2318 60.0067 26.746C59.496 27.2601 58.8918 27.5176 58.1937 27.5176H50.5783C50.2835 27.5176 50.0062 27.3514 49.7467 27.018C49.4863 26.6854 49.3567 26.3827 49.3567 26.1107V31.4733C49.3567 31.8496 49.4166 32.1607 49.5356 32.4066C49.6546 32.6534 49.7989 32.7768 49.9679 32.7768H43.45C43.632 32.7768 43.7839 32.6534 43.9052 32.4066C44.0258 32.1607 44.0865 31.858 44.0865 31.4994V14.7693C44.0865 14.4107 44.0273 14.108 43.9083 13.8612ZM55.1396 24.9566C55.3823 24.7182 55.5037 24.4309 55.5037 24.0937V16.9218C55.5037 16.5808 55.3838 16.2866 55.1435 16.0399C54.9024 15.7938 54.6159 15.6704 54.2819 15.6704H50.5783C50.2442 15.6704 49.9578 15.7962 49.7175 16.0467C49.4771 16.2973 49.3567 16.5893 49.3567 16.9218V24.0937C49.3567 24.4225 49.4779 24.7075 49.7206 24.9497C49.9632 25.1918 50.2489 25.3129 50.5783 25.3129H54.2819C54.6114 25.3129 54.897 25.1942 55.1396 24.9566Z" fill="white"/>
<path d="M79.4006 13.4919C80.0986 13.4919 80.703 13.7501 81.2137 14.2666C81.725 14.7831 81.9808 15.3938 81.9808 16.098V21.5649H70.5636V24.0937C70.5636 24.4225 70.6849 24.7075 70.9276 24.9497C71.1702 25.1918 71.4559 25.3129 71.7853 25.3129H80.7268C80.9087 25.3129 81.0885 25.2716 81.2659 25.1895C81.4432 25.1076 81.5937 25.0171 81.7174 24.9175C81.8409 24.8179 81.9285 24.7467 81.9808 24.703L81.1813 27.5176H67.8997C67.1932 27.5176 66.5828 27.2601 66.0668 26.746C65.5514 26.2318 65.2935 25.6218 65.2935 24.9175V16.098C65.2935 15.3938 65.5508 14.7831 66.0637 14.2666C66.5774 13.7501 67.1887 13.4919 67.8997 13.4919H67.9259H79.4006ZM76.7106 16.9195C76.7106 16.5785 76.5909 16.2858 76.3505 16.0391C76.1093 15.7931 75.8229 15.6704 75.4889 15.6704H71.7853C71.4512 15.6704 71.1648 15.7954 70.9245 16.046C70.6841 16.2965 70.5636 16.5878 70.5636 16.9195V19.3602H76.7106V16.9195Z" fill="white"/>
<path d="M90.5262 27.2126C90.623 27.4165 90.8672 27.5176 91.2564 27.5176H84.4729C84.6548 27.5176 84.8069 27.3943 84.9283 27.1482C85.0488 26.9015 85.1094 26.5988 85.1094 26.2402V14.7693C85.1094 14.4107 85.0503 14.108 84.9313 13.8612C84.8123 13.6152 84.6595 13.4919 84.4729 13.4919H89.554C89.9141 13.4919 90.1415 13.6237 90.2367 13.8872C90.3319 14.1508 90.3795 14.4881 90.3795 14.8987C90.3795 14.6267 90.5132 14.3241 90.7796 13.9907C91.0453 13.6581 91.3287 13.4919 91.6274 13.4919H96.9812V15.6704H91.7118C91.3302 15.6704 91.0131 15.7908 90.7597 16.0306C90.5063 16.2704 90.3795 16.5931 90.3795 17V26.2402C90.3795 26.6854 90.4287 27.0096 90.5262 27.2126Z" fill="white"/>
<path d="M102.054 11.2872L107.324 10.4114V16.1242H112.62V13.9196H107.324V24.0096C107.324 24.3682 107.457 24.6754 107.721 24.9306C107.985 25.1858 108.297 25.313 108.656 25.313H112.25C112.436 25.313 112.619 25.2701 112.799 25.1835C112.979 25.0969 113.127 25.0057 113.244 24.9107C113.361 24.8158 113.445 24.7468 113.498 24.7031L112.672 27.5177H104.926C104.121 27.5177 103.44 27.2257 102.886 26.6426C102.332 26.0587 102.054 25.3237 102.054 24.4379V16.1242H98.9934V13.9196H102.054V11.2872Z" fill="white"/>
<path d="M120.664 9.98987C120.664 9.49337 120.579 9.07557 120.41 8.73857C120.241 8.40127 120.034 8.23267 119.787 8.23267H137.137C137.652 8.23267 138.127 8.36227 138.563 8.62207C138.998 8.88097 139.345 9.23277 139.603 9.67567C139.86 10.1187 139.989 10.5953 139.989 11.1057V17.6614C139.989 18.1719 139.861 18.6461 139.606 19.0844C139.35 19.5235 139.002 19.8707 138.563 20.1252C138.123 20.3803 137.648 20.5083 137.137 20.5083H126.382V25.7667C126.382 26.2426 126.467 26.6533 126.636 26.9989C126.805 27.3445 127.015 27.5177 127.266 27.5177H119.787C120.034 27.5177 120.241 27.3491 120.41 27.012C120.579 26.6747 120.664 26.2594 120.664 25.7667V9.98987ZM126.382 17.8752H132.959C133.318 17.8752 133.63 17.748 133.894 17.4928C134.158 17.2376 134.29 16.9219 134.29 16.5456V12.1685C134.29 11.8061 134.16 11.498 133.901 11.2451C133.641 10.9922 133.326 10.8658 132.959 10.8658H126.382V17.8752Z" fill="white"/>
<path d="M159.766 11.7409C159.688 11.6245 159.468 11.449 159.106 11.216C158.745 10.9823 158.38 10.8658 158.011 10.8658H150.103C149.744 10.8658 149.436 10.993 149.18 11.2482C148.925 11.5034 148.797 11.8099 148.797 12.1685V23.5621C148.797 23.9253 148.927 24.2363 149.187 24.4962C149.447 24.7552 149.753 24.8846 150.103 24.8846H158.037C158.431 24.8846 158.789 24.7758 159.109 24.5575C159.43 24.3391 159.658 24.1567 159.792 24.0096L158.914 27.5177H145.951C145.154 27.5177 144.476 27.2411 143.917 26.6878C143.358 26.1345 143.079 25.4641 143.079 24.6778V11.1057C143.079 10.3141 143.358 9.63807 143.917 9.07557C144.476 8.51397 145.154 8.23267 145.951 8.23267H158.888L159.766 11.7409Z" fill="white"/>
<path d="M19.6945 26.0471L0 31V23.9221L19.6945 18.969V26.0471Z" fill="white"/>
<path d="M19.6945 7.07802L0 12.031V4.95294L19.6945 0V7.07802Z" fill="white"/>
<path d="M13.4747 17.9828L0 21.3742V14.2962L13.4747 10.9048V17.9828Z" fill="white"/>
</svg>
