<svg width="21" height="20" viewBox="0 0 21 20" xmlns="http://www.w3.org/2000/svg">
<path d="M18.0888 19.0692C17.6884 19.6805 16.9928 20.0388 16.255 19.9967C15.5173 19.9545 14.5687 19.8491 13.9153 19.6805C11.0065 18.9217 7.99227 17.1089 5.44178 14.5584C2.89129 12.0079 1.07853 8.99371 0.319708 6.08488C0.15108 5.43145 0.0667666 4.504 0.00353126 3.76626C-0.0386256 3.04959 0.29864 2.35401 0.909915 1.95352L3.50256 0.225081C4.17707 -0.217566 5.08345 0.0142892 5.44178 0.730956L7.54962 4.7991C7.84472 5.36822 7.69717 6.08489 7.19129 6.48538L5.29423 7.96087C6.05305 9.37313 6.76971 10.5114 8.16089 11.8815C9.44668 13.1672 10.5638 13.9261 12.0182 14.706L13.5148 12.7878C13.9153 12.2819 14.632 12.1133 15.2011 12.4295L19.2903 14.5373C20.007 14.8957 20.2388 15.8021 19.7962 16.4766L18.0888 19.0692Z"/>
</svg>
